<svg width="20" height="20" viewBox="0 0 20 20" fill="none" xmlns="http://www.w3.org/2000/svg">
<path fill-rule="evenodd" clip-rule="evenodd" d="M7.51051 14.2022C8.15717 14.4697 8.87884 14.683 9.32217 14.238C9.69217 13.8664 9.90301 12.4272 9.95717 10.8339L16.8122 10.8339C17.273 10.8339 17.6455 10.4614 17.6455 10.0005C17.6455 9.53971 17.273 9.16721 16.8122 9.16721L9.95634 9.16721C9.90217 7.57721 9.69134 6.14304 9.32134 5.77304C9.12634 5.57804 8.87884 5.50471 8.60967 5.50471C8.23217 5.50471 7.81384 5.64971 7.44801 5.80138C6.13884 6.34304 2.35467 8.63138 2.35467 10.0064C2.35467 11.4255 6.31051 13.7047 7.51051 14.2022Z" fill="#005596"/>
</svg>
